HIERARCHY
ROOT mixamorig:Hips
{
	OFFSET 0.000000 104.274902 0.000000
	CHANNELS 6 Xposition Yposition Zposition Xrotation Yrotation Zrotation
	JOINT mixamorig:Spine
	{
		OFFSET 0.000000 10.181549 0.131524
		CHANNELS 6 Xposition Yposition Zposition Xrotation Yrotation Zrotation
		JOINT mixamorig:Spine1
		{
			OFFSET 0.000000 9.893990 -1.470706
			CHANNELS 3 Xrotation Yrotation Zrotation
			JOINT mixamorig:Spine2
			{
				OFFSET 0.000000 9.220787 -1.370637
				CHANNELS 3 Xrotation Yrotation Zrotation
				JOINT mixamorig:Neck
				{
					OFFSET 0.000000 16.740372 -2.049022
					CHANNELS 6 Xposition Yposition Zposition Xrotation Yrotation Zrotation
					JOINT mixamorig:Head
					{
						OFFSET 0.000000 9.617859 1.684976
						CHANNELS 6 Xposition Yposition Zposition Xrotation Yrotation Zrotation
						JOINT mixamorig:HeadTop_End
						{
							OFFSET 0.000000 22.037384 7.501072
							CHANNELS 6 Xposition Yposition Zposition Xrotation Yrotation Zrotation
							End Site
							{
								OFFSET 0.000000 23.106567 -2.828246
							}
						}
					}
				}
				JOINT mixamorig:RightShoulder
				{
					OFFSET -4.570000 11.014877 -2.160840
					CHANNELS 6 Xposition Yposition Zposition Xrotation Yrotation Zrotation
					JOINT mixamorig:RightArm
					{
						OFFSET -10.592867 -0.524796 -2.232105
						CHANNELS 3 Xrotation Yrotation Zrotation
						JOINT mixamorig:RightForeArm
						{
							OFFSET -27.841497 0.000000 -0.000002
							CHANNELS 3 Xrotation Yrotation Zrotation
							JOINT mixamorig:RightHand
							{
								OFFSET -28.328812 0.000000 -0.000001
								CHANNELS 3 Xrotation Yrotation Zrotation
								JOINT mixamorig:RightHandThumb1
								{
									OFFSET -2.464798 -1.573990 2.681911
									CHANNELS 6 Xposition Yposition Zposition Xrotation Yrotation Zrotation
									JOINT mixamorig:RightHandThumb2
									{
										OFFSET -3.244781 -1.873383 1.873376
										CHANNELS 3 Xrotation Yrotation Zrotation
										JOINT mixamorig:RightHandThumb3
										{
											OFFSET -2.646263 -1.527817 1.527818
											CHANNELS 6 Xposition Yposition Zposition Xrotation Yrotation Zrotation
											JOINT mixamorig:RightHandThumb4
											{
												OFFSET -1.994591 -1.151581 1.151575
												CHANNELS 6 Xposition Yposition Zposition Xrotation Yrotation Zrotation
												End Site
												{
													OFFSET -1.860176 -1.142715 1.365483
												}
											}
										}
									}
								}
								JOINT mixamorig:RightHandIndex1
								{
									OFFSET -9.108299 -0.517883 2.259803
									CHANNELS 6 Xposition Yposition Zposition Xrotation Yrotation Zrotation
									JOINT mixamorig:RightHandIndex2
									{
										OFFSET -3.699997 0.000000 0.000000
										CHANNELS 3 Xrotation Yrotation Zrotation
										JOINT mixamorig:RightHandIndex3
										{
											OFFSET -2.850006 0.000000 0.000000
											CHANNELS 3 Xrotation Yrotation Zrotation
											JOINT mixamorig:RightHandIndex4
											{
												OFFSET -2.772194 0.000000 0.000000
												CHANNELS 3 Xrotation Yrotation Zrotation
												End Site
												{
													OFFSET -2.772202 0.000000 -0.000484
												}
											}
										}
									}
								}
								JOINT mixamorig:RightHandMiddle1
								{
									OFFSET -9.532501 0.000000 -0.000000
									CHANNELS 6 Xposition Yposition Zposition Xrotation Yrotation Zrotation
									JOINT mixamorig:RightHandMiddle2
									{
										OFFSET -3.699997 0.000000 0.000000
										CHANNELS 3 Xrotation Yrotation Zrotation
										JOINT mixamorig:RightHandMiddle3
										{
											OFFSET -2.949997 0.000000 0.000000
											CHANNELS 3 Xrotation Yrotation Zrotation
											JOINT mixamorig:RightHandMiddle4
											{
												OFFSET -2.946594 0.000000 0.000000
												CHANNELS 3 Xrotation Yrotation Zrotation
												End Site
												{
													OFFSET -2.946602 0.000000 -0.000982
												}
											}
										}
									}
								}
								JOINT mixamorig:RightHandRing1
								{
									OFFSET -9.103600 -0.043106 -1.865100
									CHANNELS 6 Xposition Yposition Zposition Xrotation Yrotation Zrotation
									JOINT mixamorig:RightHandRing2
									{
										OFFSET -3.379303 0.000000 0.000000
										CHANNELS 3 Xrotation Yrotation Zrotation
										JOINT mixamorig:RightHandRing3
										{
											OFFSET -2.889694 0.000000 0.000000
											CHANNELS 3 Xrotation Yrotation Zrotation
											JOINT mixamorig:RightHandRing4
											{
												OFFSET -2.638802 0.000000 0.000000
												CHANNELS 3 Xrotation Yrotation Zrotation
												End Site
												{
													OFFSET -2.638802 0.000000 0.004218
												}
											}
										}
									}
								}
								JOINT mixamorig:RightHandPinky1
								{
									OFFSET -8.076698 -0.486725 -3.806299
									CHANNELS 6 Xposition Yposition Zposition Xrotation Yrotation Zrotation
									JOINT mixamorig:RightHandPinky2
									{
										OFFSET -3.600006 0.000000 0.000000
										CHANNELS 3 Xrotation Yrotation Zrotation
										JOINT mixamorig:RightHandPinky3
										{
											OFFSET -2.099998 0.000000 0.000000
											CHANNELS 3 Xrotation Yrotation Zrotation
											JOINT mixamorig:RightHandPinky4
											{
												OFFSET -2.115791 0.000000 0.000000
												CHANNELS 3 Xrotation Yrotation Zrotation
												End Site
												{
													OFFSET -2.115799 0.000000 0.000174
												}
											}
										}
									}
								}
							}
						}
					}
				}
				JOINT mixamorig:LeftShoulder
				{
					OFFSET 4.570400 11.014679 -2.160816
					CHANNELS 6 Xposition Yposition Zposition Xrotation Yrotation Zrotation
					JOINT mixamorig:LeftArm
					{
						OFFSET 10.592373 -0.524597 -2.232116
						CHANNELS 3 Xrotation Yrotation Zrotation
						JOINT mixamorig:LeftForeArm
						{
							OFFSET 27.841488 0.000000 0.000001
							CHANNELS 3 Xrotation Yrotation Zrotation
							JOINT mixamorig:LeftHand
							{
								OFFSET 28.328808 0.000000 -0.000000
								CHANNELS 3 Xrotation Yrotation Zrotation
								JOINT mixamorig:LeftHandThumb1
								{
									OFFSET 2.466103 -1.576202 2.681698
									CHANNELS 6 Xposition Yposition Zposition Xrotation Yrotation Zrotation
									JOINT mixamorig:LeftHandThumb2
									{
										OFFSET 3.243317 -1.872528 1.872530
										CHANNELS 3 Xrotation Yrotation Zrotation
										JOINT mixamorig:LeftHandThumb3
										{
											OFFSET 2.647881 -1.528763 1.528754
											CHANNELS 6 Xposition Yposition Zposition Xrotation Yrotation Zrotation
											JOINT mixamorig:LeftHandThumb4
											{
												OFFSET 1.998924 -1.154083 1.154080
												CHANNELS 6 Xposition Yposition Zposition Xrotation Yrotation Zrotation
												End Site
												{
													OFFSET 1.884041 -1.149155 1.337651
												}
											}
										}
									}
								}
								JOINT mixamorig:LeftHandIndex1
								{
									OFFSET 9.109299 -0.518005 2.259900
									CHANNELS 6 Xposition Yposition Zposition Xrotation Yrotation Zrotation
									JOINT mixamorig:LeftHandIndex2
									{
										OFFSET 3.699997 0.000000 0.000000
										CHANNELS 3 Xrotation Yrotation Zrotation
										JOINT mixamorig:LeftHandIndex3
										{
											OFFSET 2.850006 0.000000 0.000000
											CHANNELS 3 Xrotation Yrotation Zrotation
											JOINT mixamorig:LeftHandIndex4
											{
												OFFSET 2.774895 0.000000 0.000000
												CHANNELS 3 Xrotation Yrotation Zrotation
												End Site
												{
													OFFSET 2.774902 0.000000 -0.000072
												}
											}
										}
									}
								}
								JOINT mixamorig:LeftHandMiddle1
								{
									OFFSET 9.533401 0.000000 0.000000
									CHANNELS 6 Xposition Yposition Zposition Xrotation Yrotation Zrotation
									JOINT mixamorig:LeftHandMiddle2
									{
										OFFSET 3.699997 0.000000 0.000000
										CHANNELS 3 Xrotation Yrotation Zrotation
										JOINT mixamorig:LeftHandMiddle3
										{
											OFFSET 2.949997 0.000000 0.000000
											CHANNELS 3 Xrotation Yrotation Zrotation
											JOINT mixamorig:LeftHandMiddle4
											{
												OFFSET 2.952896 0.000000 0.000000
												CHANNELS 3 Xrotation Yrotation Zrotation
												End Site
												{
													OFFSET 2.952904 0.000000 0.000165
												}
											}
										}
									}
								}
								JOINT mixamorig:LeftHandRing1
								{
									OFFSET 9.104500 -0.042999 -1.865101
									CHANNELS 6 Xposition Yposition Zposition Xrotation Yrotation Zrotation
									JOINT mixamorig:LeftHandRing2
									{
										OFFSET 3.149994 0.000000 0.000000
										CHANNELS 3 Xrotation Yrotation Zrotation
										JOINT mixamorig:LeftHandRing3
										{
											OFFSET 2.950005 0.000000 0.000000
											CHANNELS 3 Xrotation Yrotation Zrotation
											JOINT mixamorig:LeftHandRing4
											{
												OFFSET 2.644302 0.000000 0.000000
												CHANNELS 3 Xrotation Yrotation Zrotation
												End Site
												{
													OFFSET 2.644302 0.000000 0.000083
												}
											}
										}
									}
								}
								JOINT mixamorig:LeftHandPinky1
								{
									OFFSET 8.077805 -0.486893 -3.806302
									CHANNELS 6 Xposition Yposition Zposition Xrotation Yrotation Zrotation
									JOINT mixamorig:LeftHandPinky2
									{
										OFFSET 3.600006 0.000000 0.000000
										CHANNELS 3 Xrotation Yrotation Zrotation
										JOINT mixamorig:LeftHandPinky3
										{
											OFFSET 2.099998 0.000000 0.000000
											CHANNELS 3 Xrotation Yrotation Zrotation
											JOINT mixamorig:LeftHandPinky4
											{
												OFFSET 2.125496 0.000000 0.000000
												CHANNELS 3 Xrotation Yrotation Zrotation
												End Site
												{
													OFFSET 2.125504 0.000000 -0.001254
												}
											}
										}
									}
								}
							}
						}
					}
				}
			}
		}
	}
	JOINT mixamorig:RightUpLeg
	{
		OFFSET -8.207800 -6.751701 -1.599544
		CHANNELS 6 Xposition Yposition Zposition Xrotation Yrotation Zrotation
		JOINT mixamorig:RightLeg
		{
			OFFSET 0.000004 -44.370152 0.345934
			CHANNELS 3 Xrotation Yrotation Zrotation
			JOINT mixamorig:RightFoot
			{
				OFFSET 0.000004 -44.423664 -3.043535
				CHANNELS 3 Xrotation Yrotation Zrotation
				JOINT mixamorig:RightToeBase
				{
					OFFSET 0.000001 -8.728691 10.710592
					CHANNELS 3 Xrotation Yrotation Zrotation
					JOINT mixamorig:RightToe_End
					{
						OFFSET 0.000000 -0.000665 9.278101
						CHANNELS 3 Xrotation Yrotation Zrotation
						End Site
						{
							OFFSET 0.000000 -0.000665 9.278103
						}
					}
				}
			}
		}
	}
	JOINT mixamorig:LeftUpLeg
	{
		OFFSET 8.207800 -6.751701 -1.599544
		CHANNELS 6 Xposition Yposition Zposition Xrotation Yrotation Zrotation
		JOINT mixamorig:LeftLeg
		{
			OFFSET 0.000004 -44.370037 0.346940
			CHANNELS 3 Xrotation Yrotation Zrotation
			JOINT mixamorig:LeftFoot
			{
				OFFSET 0.000004 -44.423611 -3.044388
				CHANNELS 3 Xrotation Yrotation Zrotation
				JOINT mixamorig:LeftToeBase
				{
					OFFSET 0.000001 -8.728690 10.710592
					CHANNELS 3 Xrotation Yrotation Zrotation
					JOINT mixamorig:LeftToe_End
					{
						OFFSET 0.000000 -0.000680 9.278101
						CHANNELS 3 Xrotation Yrotation Zrotation
						End Site
						{
							OFFSET 0.000000 -0.000680 9.278101
						}
					}
				}
			}
		}
	}
}
MOTION
Frames: 4
Frame Time: 0.033333
-6.245589 93.420715 -2.145082 -12.554378 -22.314288 -6.152371 0.000000 10.181550 0.131525 19.262307 5.502873 -3.061757 0.459950 0.897633 -1.326913 0.471072 0.850750 -1.349708 0.000000 16.740364 -2.049021 5.970571 -0.462000 1.617322 0.000003 9.617838 1.684970 14.613683 -1.761591 7.966596 -0.000001 22.037369 7.501073 -0.000003 -0.000002 -0.000000 -4.570000 11.014874 -2.160841 0.619763 5.315502 5.640008 -6.941466 35.426487 60.497062 -0.000003 7.628736 0.000005 -4.883160 13.364272 -10.836151 -2.464806 -1.573993 2.681905 -1.849258 -3.581791 -6.586142 4.637197 -8.634129 -0.225369 -2.646277 -1.527831 1.527821 -1.273759 0.137303 -2.094876 -1.994582 -1.151585 1.151569 -0.000000 0.000005 -0.000000 -9.108302 -0.517879 2.259799 0.025369 -0.594852 4.887268 0.131374 -1.347858 11.132037 0.025382 -0.594861 4.887256 0.000001 0.000000 -0.000000 -9.532506 -0.000005 -0.000005 0.025370 -0.594854 4.887263 0.131376 -1.347859 11.132038 0.025379 -0.594861 4.887256 -0.000001 -0.000002 0.000000 -9.103605 -0.043118 -1.865108 0.025369 -0.594853 4.887268 0.131375 -1.347855 11.132035 0.025381 -0.594862 4.887258 -0.000002 0.000001 0.000002 -8.076706 -0.486709 -3.806301 0.025374 -0.594846 4.887265 0.131372 -1.347863 11.132040 0.025374 -0.594861 4.887248 0.000001 -0.000001 0.000000 4.570402 11.014669 -2.160815 0.536329 -0.368043 -8.451433 -11.171840 -5.579858 -71.734000 -0.000001 -39.534224 0.000002 16.847993 -1.037577 18.732670 2.466101 -1.576201 2.681698 -1.544812 3.591658 6.219036 3.939036 7.948709 0.746803 2.647878 -1.528758 1.528754 -0.579467 1.575003 2.538713 1.998925 -1.154082 1.154089 0.000001 0.000000 -0.000000 9.109293 -0.518014 2.259898 0.065101 0.967040 -8.756052 0.193729 1.625095 -13.596825 0.153774 1.450101 -12.108295 0.000002 -0.000000 -0.000002 9.533398 0.000023 -0.000000 0.010881 0.401112 -4.044738 0.289655 1.979889 -16.645559 0.153803 1.450085 -12.108290 0.000002 0.000000 0.000001 9.104496 -0.042996 -1.865106 0.046567 0.841640 -7.705320 0.233275 1.780647 -14.927923 0.153802 1.450090 -12.108304 0.000002 -0.000000 -0.000002 8.077795 -0.486893 -3.806304 0.272196 4.435579 -3.450997 0.237003 -2.254590 -15.603075 0.153777 1.450088 -12.108295 0.000001 -0.000005 0.000003 -8.207799 -6.751717 -1.599546 -10.826734 -9.777081 5.676614 50.179231 -8.608615 1.605580 -27.753488 7.949508 -5.095449 -3.029541 0.000003 0.000000 -0.000000 0.000000 0.000000 8.207800 -6.751728 -1.599555 -44.447664 10.628196 7.210000 73.720800 -4.775895 0.845551 0.328673 2.473180 -0.419303 -3.028572 0.000007 0.000003 -0.000001 0.000000 0.000001 
-4.721475 92.624901 -4.319608 -10.989601 -22.613021 -4.575509 0.000001 10.181547 0.131527 20.785306 4.439515 -2.895184 0.661904 0.735607 -1.192760 0.671319 0.693121 -1.211961 -0.000000 16.740360 -2.049021 4.230343 0.428331 1.225070 0.000000 9.617836 1.684979 9.971467 2.774689 4.606256 -0.000001 22.037399 7.501079 0.000001 0.000000 -0.000000 -4.569999 11.014878 -2.160838 0.810707 9.324385 4.893623 -6.351505 38.443276 59.528876 -0.000006 23.929785 0.000037 10.582239 9.645838 -9.217561 -2.464796 -1.573986 2.681912 -1.849263 -3.581793 -6.586141 4.637201 -8.634129 -0.225380 -2.646266 -1.527804 1.527816 -1.273759 0.137312 -2.094870 -1.994583 -1.151576 1.151575 0.000005 -0.000001 0.000003 -9.108296 -0.517880 2.259804 0.042748 -0.771418 6.343321 0.226298 -1.762880 14.628486 0.042739 -0.771426 6.343320 -0.000001 0.000002 -0.000004 -9.532500 0.000004 -0.000000 0.042749 -0.771421 6.343321 0.226293 -1.762879 14.628484 0.042741 -0.771423 6.343320 -0.000001 0.000003 0.000000 -9.103595 -0.043093 -1.865102 0.042746 -0.771422 6.343321 0.226296 -1.762878 14.628484 0.042741 -0.771425 6.343319 -0.000003 -0.000001 0.000001 -8.076696 -0.486721 -3.806297 0.042742 -0.771424 6.343327 0.226298 -1.762881 14.628481 0.042735 -0.771420 6.343323 -0.000001 0.000001 -0.000000 4.570401 11.014650 -2.160813 0.559134 -2.328461 -7.002339 -12.066659 -16.924183 -74.828820 0.000016 -48.311093 0.000012 20.472271 3.160281 21.491340 2.466106 -1.576189 2.681697 -0.634318 -4.470428 8.276989 3.939048 7.948706 0.746793 2.647897 -1.528756 1.528749 -0.579475 1.575001 2.538720 1.998925 -1.154065 1.154086 -0.000001 -0.000001 -0.000000 9.109303 -0.518021 2.259903 -1.569752 -6.250376 -12.065510 0.317481 2.070631 -17.432917 0.236070 1.791064 -15.017436 0.000002 -0.000001 0.000002 9.533407 0.000007 -0.000002 -0.702342 -7.131588 -5.925475 0.484590 2.541970 -21.584183 0.236060 1.791075 -15.017443 -0.000003 0.000001 0.000001 9.104496 -0.042995 -1.865102 -1.625174 -6.397528 -10.826499 0.385195 2.274923 -19.218902 0.236058 1.791076 -15.017450 0.000002 0.000001 0.000000 8.077822 -0.486885 -3.806302 -0.288965 -3.107403 -5.302261 0.357662 -1.867040 -18.962543 0.236077 1.791084 -15.017450 0.000001 0.000001 0.000001 -8.207797 -6.751717 -1.599544 -16.011977 -9.674612 3.967834 53.213177 -7.973238 1.947360 -27.299199 6.639209 -5.587438 -3.535485 0.000019 -0.000001 -0.000000 -0.000000 -0.000000 8.207802 -6.751721 -1.599548 -48.671303 8.322248 8.106686 88.277121 -3.534343 3.763830 -1.794500 6.065865 6.287500 -3.782668 0.000000 0.000006 -0.000001 -0.000001 -0.000000 
-3.379034 92.996727 -6.052331 -8.543159 -22.091753 -3.033586 0.000000 10.181554 0.131522 20.951957 3.729749 -1.850059 0.899758 0.623239 -1.373245 0.908765 0.572413 -1.388430 0.000000 16.740351 -2.049019 3.713947 1.013659 1.080111 -0.000000 9.617850 1.684978 6.639317 5.957676 2.241866 0.000000 22.037415 7.501076 0.000002 -0.000001 0.000000 -4.570001 11.014861 -2.160837 1.047596 12.552161 4.208177 -0.576810 39.228888 54.439855 -0.000046 45.097816 0.000086 25.678981 14.388294 -8.631694 -2.464813 -1.573995 2.681909 -1.849257 -3.581793 -6.586139 4.637197 -8.634127 -0.225383 -2.646255 -1.527809 1.527811 -1.273752 0.137320 -2.094872 -1.994583 -1.151581 1.151578 -0.000001 0.000003 -0.000000 -9.108301 -0.517860 2.259812 0.058727 -0.903646 7.436482 0.326077 -2.108264 17.582141 0.058723 -0.903652 7.436489 -0.000000 -0.000001 0.000001 -9.532496 -0.000000 0.000008 0.058725 -0.903646 7.436482 0.326078 -2.108266 17.582138 0.058723 -0.903652 7.436488 0.000002 -0.000001 -0.000001 -9.103598 -0.043104 -1.865096 0.058725 -0.903647 7.436483 0.326078 -2.108264 17.582138 0.058724 -0.903651 7.436488 -0.000001 0.000002 0.000002 -8.076696 -0.486695 -3.806293 0.058717 -0.903647 7.436492 0.326079 -2.108267 17.582130 0.058726 -0.903657 7.436493 -0.000000 -0.000002 -0.000000 4.570401 11.014676 -2.160810 0.611681 -3.875845 -5.132494 -13.509043 -24.591143 -76.104611 -0.000046 -58.496855 -0.000039 28.171788 1.177183 25.490428 2.466089 -1.576210 2.681706 27.192687 -9.890304 4.334862 3.939038 7.948706 0.746797 2.647895 -1.528751 1.528751 -0.579460 1.575018 2.538715 1.998925 -1.154051 1.154080 0.000001 0.000002 -0.000000 9.109292 -0.518029 2.259897 -3.734591 -17.211448 -9.861968 0.246751 1.830397 -15.355542 0.191770 1.616990 -13.527621 -0.000001 0.000002 -0.000000 9.533398 -0.000009 0.000000 -1.692595 -17.979112 -5.505407 0.405438 2.332178 -19.722965 0.191763 1.616998 -13.527615 -0.000001 -0.000004 -0.000002 9.104506 -0.043001 -1.865103 -3.617631 -15.053122 -10.492494 0.299345 2.012013 -16.923978 0.191780 1.616981 -13.527635 -0.000002 -0.000000 0.000000 8.077807 -0.486909 -3.806302 -0.904689 -10.206626 -4.297867 0.238371 -2.249770 -15.644337 0.191769 1.616980 -13.527646 -0.000001 0.000000 0.000000 -8.207801 -6.751713 -1.599545 -19.556715 -10.523560 2.237935 52.566864 -6.986765 2.683408 -25.464800 5.942071 -6.429984 -3.593595 -0.000008 -0.000000 0.000000 0.000000 -0.000000 8.207800 -6.751697 -1.599554 -50.200883 6.513239 8.118926 98.703999 -1.053475 5.108879 -4.114639 10.001653 11.595624 -4.119215 0.000006 -0.000004 -0.000001 0.000001 0.000001 
-2.394248 94.998352 -7.589911 -5.456333 -20.867270 -1.375163 -0.000000 10.181554 0.131525 20.856070 3.284701 -1.524049 0.609312 0.576809 -1.601708 0.617656 0.513235 -1.618388 0.000000 16.740364 -2.049020 3.759193 1.278239 1.285515 -0.000001 9.617838 1.684971 5.025122 7.978125 0.399876 -0.000001 22.037354 7.501070 -0.000001 0.000000 -0.000000 -4.570001 11.014878 -2.160838 1.112692 14.376614 4.463091 6.356959 41.673805 48.485464 -0.000024 56.876362 0.000062 36.235325 19.075368 -8.788087 -2.464804 -1.573978 2.681904 -1.849249 -3.581796 -6.586151 4.637185 -8.634099 -0.225373 -2.646281 -1.527797 1.527824 -1.273763 0.137305 -2.094878 -1.994590 -1.151586 1.151570 0.000003 0.000003 -0.000000 -9.108294 -0.517852 2.259805 0.093459 -1.138455 9.384874 0.469091 -2.515061 21.126484 0.093441 -1.138465 9.384904 -0.000002 0.000001 -0.000000 -9.532494 0.000020 -0.000002 0.093457 -1.138456 9.384874 0.469090 -2.515062 21.126480 0.093442 -1.138467 9.384905 -0.000001 -0.000002 0.000002 -9.103606 -0.043074 -1.865102 0.093457 -1.138454 9.384875 0.469091 -2.515064 21.126485 0.093443 -1.138468 9.384902 0.000001 0.000001 -0.000000 -8.076694 -0.486707 -3.806300 0.093451 -1.138452 9.384879 0.469093 -2.515060 21.126482 0.093445 -1.138470 9.384902 0.000001 0.000000 -0.000000 4.570400 11.014683 -2.160814 0.677670 -5.091885 -3.681911 -14.940197 -29.705538 -75.457533 0.000008 -65.441559 0.000029 40.024939 -6.757375 24.026782 2.466107 -1.576195 2.681692 7.281573 -6.251349 10.011228 3.939051 7.948729 0.746818 2.647881 -1.528742 1.528757 -0.579473 1.575005 2.538708 1.998921 -1.154072 1.154085 0.000003 0.000001 -0.000002 9.109295 -0.518010 2.259891 -1.913352 -9.401883 -9.452431 0.223898 1.745085 -14.622832 0.179487 1.565032 -13.085012 -0.000001 0.000002 -0.000000 9.533405 0.000010 -0.000001 -0.847354 -10.083886 -4.891419 0.356111 2.189804 -18.472458 0.179478 1.565040 -13.085001 -0.000003 0.000002 0.000000 9.104512 -0.043008 -1.865104 -2.061001 -9.374419 -9.487480 0.271206 1.917181 -16.103370 0.179484 1.565050 -13.085007 0.000002 0.000002 -0.000000 8.077800 -0.486891 -3.806303 -0.448192 -5.461105 -4.177561 0.242751 -2.234205 -15.778246 0.179484 1.565034 -13.085018 0.000000 -0.000001 -0.000000 -8.207801 -6.751710 -1.599540 -20.965718 -11.352574 1.032690 47.052521 -8.502540 3.494034 -21.440432 7.266253 -6.577178 -2.821528 0.000016 0.000001 0.000000 0.000002 0.000000 8.207799 -6.751700 -1.599543 -49.451843 6.672704 7.300943 102.154037 2.648698 5.393398 -5.787977 10.535943 15.478829 -3.316534 -0.000002 -0.000011 -0.000001 0.000001 0.000003 
